<?xml version="1.0" encoding="utf-8"?>
<!-- Generator: Adobe Illustrator 22.0.1, SVG Export Plug-In . SVG Version: 6.00 Build 0)  -->
<svg version="1.1" id="Calque_1" xmlns="http://www.w3.org/2000/svg" xmlns:xlink="http://www.w3.org/1999/xlink" x="0px" y="0px"
	 viewBox="0 0 432 432" style="enable-background:new 0 0 432 432;" xml:space="preserve">
<style type="text/css">
	.st0{fill:#4B824E;}
	.st1{fill:#1A1A1A;}
	.st2{fill:#6A8462;}
	.st3{fill:#C7B299;}
	.st4{fill:#736357;}
	.st5{fill:#CCCCCC;}
	.st6{fill:#333333;}
	.st7{fill:#F7931E;}
	.st8{fill:#53A05A;}
	.st9{fill:#DD8E40;}
	.st10{fill:#534741;}
	.st11{fill:#9E2E36;}
	.st12{fill:#D38537;}
	.st13{fill:#6C9B5D;}
	.st14{fill:#EE9047;}
	.st15{fill:#93353C;}
	.st16{fill:#BC6F45;}
	.st17{fill:#A09D34;}
	.st18{fill:#4B8C68;}
	.st19{fill:#714352;}
	.st20{fill:#BC9445;}
	.st21{fill:#AF3C3C;}
	.st22{fill:#C69C6D;}
	.st23{fill:#A67C52;}
	.st24{fill:#D8986C;}
	.st25{fill:#BC8146;}
	.st26{fill:#6D3424;}
	.st27{fill:#CCA54E;}
	.st28{fill:#8CC63F;}
	.st29{fill:#F7953B;}
	.st30{fill:#B3C956;}
	.st31{fill:#B3B3B3;}
	.st32{fill:#E5BF23;}
	.st33{fill:#B583BA;}
	.st34{fill:#AA6350;}
	.st35{fill:#D3C157;}
	.st36{fill:#D69556;}
	.st37{fill:#B7692B;}
	.st38{fill:#C1654C;}
	.st39{fill:#8C9852;}
	.st40{fill:#D89048;}
	.st41{fill:#9C40A5;}
	.st42{fill:#F7941D;}
	.st43{fill:#F6A607;}
	.st44{fill:#C35613;}
	.st45{fill:#2B2B2B;}
	.st46{fill:#F8ED31;}
	.st47{fill:#E6E6E6;}
	.st48{fill:#61C040;}
	.st49{fill:#D4A51A;}
	.st50{fill:#998675;}
	.st51{fill:#F07528;}
	.st52{fill:#FFB602;}
	.st53{fill:#F09509;}
</style>
<g>
	<g>
		<path class="st5" d="M290.3,210.2c-3.8-0.1-7.6-0.2-11.4-0.2c-7,0-13.9,1.2-20.6,3.1c-6.4,1.8-12.6,4.3-18.7,7.1
			c-7,3.3-14.2,6-21.8,7.8c-4.9,1.2-9.8,2-14.8,2.4c-4.3,0.4-8.5,0.5-12.8,0.4c-14.2-0.4-27.8-3.7-40.8-9.4
			c-8.8-3.8-17.1-8.4-25-13.8c-2-1.3-4-2.6-6-3.8c-3.2-1.9-6.6-3-10.2-3.8c-3.3-0.7-8.6,0.4-11,4.9c-0.9,1.8-1.8,3.7-2.6,5.5
			c-0.7,1.5-1.3,3.1-2,4.7c-2.8,6-6.8,11-12,15c-2.3,1.8-4.9,3.1-7.8,3.6c-3.7,0.6-6.9-0.5-9.3-3.4c-1.7-2.1-2.6-4.6-3-7.2
			c-0.4-2.6-0.3-5.3-0.1-7.9c0.2-3.6,0.5-7.1,0.7-10.7c0.2-4.6-0.1-9.1-0.7-13.7c-0.8-6.3-1.7-12.6-2.5-18.9
			c-0.4-3.6-0.6-7.1-0.1-10.7c0.3-1.9,0.8-3.8,1.8-5.6c2-3.7,5.2-5.8,9.4-6.6c2.9-0.5,5.7-0.4,8.5,0.1c4.1,0.8,8.1,1.7,12.1,2.6
			c1.9,0.4,3.8,0.3,5.7-0.3c1.7-0.5,2.2-1.7,1.4-3.2c-0.7-1.1-1.5-2.1-2.4-2.9c-2.1-2.1-4.4-4-6.5-6.1c-6.7-6.8-11.5-14.9-14.2-24
			c-2.6-8.8-1.5-17.3,3-25.3c1.7-2.9,3.9-5.4,6.5-7.5c4.5-3.7,9.7-5,15.4-4.6c7.6,0.6,14,3.8,19.9,8.5c3.9,3.1,7.1,6.8,10.2,10.6
			c3,3.7,6.1,7.3,9.6,10.5c1.2,1.1,2.4,2.1,3.7,3c1.8,1.4,3.9,1.7,6.1,1.3c1.9-0.4,3.7-1.1,5.2-2.2c3-2.2,5.5-4.8,7.4-8
			c3-5,6.2-10,9.3-15c3-4.6,6.2-9,9.9-13.1c1-1.1,2.1-2.2,3.3-3.3c5.7-5.2,12.2-6.5,19.5-4.3c3.8,1.1,7.4,2.7,11,4.3
			c2.2,0.9,4.3,1.9,6.5,2.9c4.5,2,9.3,2.5,14.2,2.1c2.8-0.2,5.5-0.6,8.3-0.8c2.2-0.2,4.5-0.1,6.6,0.5c3.6,1,6,3.2,6.9,6.9
			c0.5,2.1,0.2,4.1-0.3,6.2c-0.9,3.7-2.6,7.1-4.5,10.3c-1.4,2.3-3,4.5-4.8,6.6c-4.4,5.2-10,8.3-16.6,9.8c-3.2,0.7-6.5,1.1-9.7,1.4
			c-2.6,0.3-5.2,0.6-7.7,1.5c-0.6,0.2-1.2,0.5-1.8,0.7c-3,1.5-4.8,4-4.9,7.3c-0.1,7.8,2.6,14.3,9.5,18.6c4.4,2.7,9.2,4.3,14.3,5
			c4.6,0.6,9.2,1.2,13.8,1.6c13.3,1,25.5,5.3,36.8,12.4c3.8,2.4,7.5,5,11.2,7.5c3.4,2.3,6.8,4.6,10.4,6.5c3.5,1.8,7.1,3.2,10.9,3.9
			c4.5,0.9,8.9,0.4,13.2-0.8c3.8-1.1,7.4-2.7,10.9-4.3c2.8-1.3,5.6-2.6,8.4-3.8c1.7-0.7,3.4-1.3,5.2-1.3c5.4,0,9.1,5.1,7.4,10.3
			c-0.6,1.8-1.7,3.3-2.9,4.7c-2.1,2.4-4.4,4.5-6.9,6.3c-4.5,3.3-9.3,6.3-14.3,8.9c-3.7,1.9-7.3,3.9-11.2,5.4
			c-8.1,3.1-16.4,4.4-25,4.2c-2.4-0.1-4.7-0.2-7.1-0.2C290.3,210.3,290.3,210.3,290.3,210.2z M113.6,117.4c-2.3,0.1-4.2,1.5-5.5,3.7
			c-1,1.7-1,3.5,0.3,5.1c2.4,3.2,5.6,5.3,9.5,6c2.1,0.4,3.8-0.8,4.4-2.8c0.3-1,0.2-1.9,0-2.9c-0.6-3.2-2.1-5.9-4.7-7.8
			C116.5,117.9,115.3,117.4,113.6,117.4z M162.5,209.7c0.3-0.9,0.3-1.7-0.5-2.2c-1-0.6-1.7,0.2-2.3,0.9c-1.9-1.1-3.9-2.1-5.7-3.1
			c0.3-1.4,0.2-1.9-0.3-2.3c-1-0.6-1.7,0-2.4,0.6c-1.9-1.2-3.8-2.4-5.6-3.6c0.7-1.6,0.8-2.2,0.1-2.7c-0.2-0.2-0.6-0.3-0.8-0.3
			c-0.8,0-1.2,0.7-1.7,1.2c-0.4-0.3-0.6-0.4-0.9-0.6c-1.7-1.4-3.4-2.8-5.2-4.2c-0.3-0.3-0.7-0.6-1.1-0.8c-0.6-0.3-1.3-0.2-1.7,0.2
			c-0.4,0.5-0.5,1.2-0.1,1.8c0.2,0.3,0.4,0.5,0.7,0.7c1.9,1.6,3.9,3.2,5.9,4.8c0.3,0.2,0.5,0.4,0.8,0.7c-0.5,0.9-1.1,1.8-0.1,2.6
			c1.2,0.9,1.9-0.1,2.6-0.9c1.9,1.2,3.8,2.4,5.7,3.6c-0.2,0.4-0.4,0.7-0.5,1c-0.4,0.8-0.2,1.5,0.4,1.9c0.6,0.4,1.4,0.2,2-0.5
			c0.2-0.3,0.4-0.6,0.6-0.9c2.2,1.2,4.3,2.3,6.4,3.5c-0.5,1.5-0.3,2.2,0.4,2.6c0.3,0.1,0.7,0.2,1,0.1c0.5-0.3,1-0.8,1.5-1.3
			c1.5,0.6,3.2,1.3,4.8,1.9c0.4,0.2,0.8,0.3,1.2,0.4c0.6,0.1,1.2-0.2,1.5-0.8c0.3-0.6,0.1-1.3-0.5-1.7c-0.3-0.2-0.7-0.4-1.1-0.5
			C165.9,211,164.3,210.4,162.5,209.7z M180.5,101.3c1.3-1.5,2.5-3,3.7-4.5c0.6-0.7,0.6-1.5,0-2c-0.6-0.6-1.5-0.5-2.1,0.1
			c-0.3,0.3-0.6,0.7-1,1.1c-1,1.1-1.9,2.3-2.9,3.5c-0.6-0.4-1.1-0.8-1.7-1.1c-0.7-0.4-1.4-0.2-1.8,0.4c-0.4,0.5-0.4,1.2,0.1,1.8
			c0.2,0.2,0.5,0.4,0.7,0.6c0.3,0.2,0.6,0.5,0.8,0.7c-1.2,1.7-2.4,3.4-3.6,5c-0.5-0.3-0.9-0.5-1.4-0.7c-0.9-0.4-1.7-0.2-2.1,0.5
			c-0.4,0.7-0.1,1.5,0.7,2c0.4,0.3,0.8,0.5,1.3,0.7c-0.2,0.4-0.3,0.7-0.5,1c-0.6,1.3-1.2,2.5-1.8,3.8c-0.4,0.8-0.1,1.6,0.5,2
			c0.7,0.4,1.5,0.1,1.9-0.6c0.4-0.7,0.7-1.4,1.1-2.1c0.4-0.8,0.8-1.6,1.2-2.5c0.7,0.4,1.2,0.8,1.8,1.1c0.7,0.3,1.3,0.2,1.7-0.3
			c0.4-0.5,0.4-1.1,0-1.7c-0.2-0.3-0.5-0.5-0.8-0.7c-0.4-0.3-0.9-0.6-1.3-0.9c1.1-1.7,2.2-3.2,3.4-4.7c1.4,1.1,2.1,1.2,2.8,0.4
			C182,103.4,181.8,102.7,180.5,101.3z M100.8,120.8c-0.2-0.8-0.3-1.6-0.6-2.3c-1.2-2.6-2.8-4.9-5.2-6.5c-0.6-0.4-1.2-0.8-1.9-1
			c-2.1-0.7-3.9,0.6-4,2.8c0,0.7,0,1.4,0.2,2c0.9,3,2.6,5.5,5.2,7.3c0.5,0.4,1.1,0.6,1.7,0.8C98.4,124.7,100.7,123.1,100.8,120.8z
			 M106.2,99.6c-2.5,0-3.8,1.5-3.4,3.8c0.2,0.8,0.5,1.6,0.9,2.3c1.2,2.2,3,3.8,5.2,5c0.7,0.4,1.4,0.7,2.2,0.9c1.3,0.4,2.5,0,3.4-0.9
			c0.9-0.9,0.9-2,0.5-3.2c-0.3-0.7-0.6-1.5-1-2.1c-1.3-2-3.1-3.6-5.1-4.8C108,99.9,107,99.6,106.2,99.6z"/>
		<path class="st6" d="M241.4,138.5c-1.2,0-2.3,0-3.5,0c-2.2-0.1-2.7-1.2-1.5-3c0.4-0.7,0.9-1.3,1.4-1.9
			c5.4-6.1,11.2-11.8,17.3-17.2c3.8-3.3,7.8-6.6,12-9.4c3-2.1,6.2-3.9,9.6-5.2c1.9-0.7,3.9-1.1,6-1.1c1.9,0.1,3.7,0.7,5.3,1.8
			c1.8,1.2,3.2,2.7,4.5,4.4c2.5,3.5,4.5,7.2,6.3,11.1c1.1,2.5,2.3,4.9,3.5,7.4c0.3,0.6,0.7,1.3,1.1,1.8c0.2,0.3,0.7,0.5,0.9,0.5
			c0.3-0.1,0.6-0.5,0.7-0.9c0.1-0.5,0.1-1,0-1.6c-0.1-0.9-0.2-1.7-0.3-2.6c0-0.1-0.1-0.3,0-0.4c0.1-0.3,0.3-0.7,0.5-0.8
			c0.2-0.1,0.7,0,0.9,0.2c0.4,0.4,0.8,0.8,1.1,1.3c0.5,0.9,1.2,1.3,2.3,1.3c1.2-0.1,2.4,0.2,3.5,0.9c0.6,0.3,1.1,0.3,1.7,0
			c0.6-0.3,1.1-0.6,1.7-0.9c0.4-0.2,0.9-0.4,1.3,0c0.4,0.4,0.2,0.9-0.1,1.3c-0.4,0.7-0.8,1.4-1.3,2.1c-0.4,0.6-0.5,1.2-0.5,1.9
			c0.1,0.7,0.4,1,1.1,0.6c0.6-0.3,1.2-0.7,1.8-1.2c2.1-1.8,4.2-3.5,6.3-5.3c2.9-2.5,6-4.8,9.3-6.8c1.8-1.1,3.6-2,5.7-2.5
			c3.2-0.9,6.2-0.4,8.9,1.5c1.4,1,2.6,2.1,3.8,3.4c2.3,2.4,4.2,5.2,5.9,8.1c4.8,8,8.6,16.5,11.8,25.3c1.3,3.6,2.5,7.3,3.7,10.9
			c0.2,0.7,0.4,1.5,0.5,2.2c0.1,0.4,0,0.9-0.1,1.3c-0.2,0.7-0.6,1.1-1.3,1c-0.7-0.1-1.4-0.3-2-0.6c-2.3-0.9-4.6-2-6.9-2.9
			c-4.3-1.7-8.8-2.5-13.5-2c-0.6,0.1-1.1,0.1-1.7,0c-1,0-1.7-0.5-2-1.4c-0.3-0.7-0.5-1.4-0.7-2.2c-0.3-1-0.5-2.1-0.8-3.1
			c-0.4-1.1-0.8-2.2-1.4-3.2c-2-3.5-4.8-4.9-8.8-4.3c-1.2,0.2-2.5,0.4-3.7,0.6c-1.3,0.2-1.9,0-2.5-1.2c-0.4-0.7-0.6-1.5-1-2.2
			c-0.5-1.1-1-2.3-1.7-3.3c-1.5-2.4-4.5-3.5-7.3-3c-1.3,0.3-2.2,0.9-2.8,2.1c-0.6,1.1-1.1,2.3-1.6,3.5c-1.3,3-2.9,5.7-5.2,8
			c-0.5,0.5-1.1,1-1.6,1.4c-1.7,1.2-2.7,1.1-4-0.5c-1.6-1.9-2.6-4.1-3.1-6.4c-0.4-1.9-0.5-3.9-0.4-5.8c0-1.1,0.1-2.2,0-3.3
			c-0.1-3.4-2.2-5.5-5.7-5.5c-2.4,0-4.5,0.6-6.4,2.1c-0.8,0.7-1.6,1.4-2.4,2.1c-0.5,0.4-1,0.9-1.5,1.3c-0.8,0.6-1.6,0.6-2.4,0
			c-0.7-0.5-1.3-1-2-1.4c-1-0.6-2-1.2-3.1-1.7c-2-0.9-4-0.8-6,0.1c-1.4,0.6-2.7,1.5-3.8,2.7c-0.9,0.9-1.7,2-2.6,3
			c-0.4,0.5-0.8,1.1-1.3,1.6c-1,1.1-1.8,1.2-3.1,0.6c-0.5-0.3-1.1-0.5-1.6-0.8c-3.8-2.1-7.8-3.2-12.1-3.5
			C244.9,138.6,243.2,138.6,241.4,138.5C241.4,138.5,241.4,138.5,241.4,138.5z"/>
	</g>
	<g>
		<g>
			<g>
				<path class="st6" d="M112.2,296.3c-2,17.4-46.6,24.9-46.6-13.4l11.4,3.8c1.2,21.1,21.4,15.1,24,8.2c2.1-5.7,1.5-10.5-11-13.5
					c-54.2-12.9,9-67.9,19.5-13.6l-10,2.5c-0.3-33.2-42.1-6.7-7.6,3C103.9,276.7,113.6,284.2,112.2,296.3z"/>
				<path class="st6" d="M214.6,277.8c0,16.3-8.8,32.8-28.5,32.8s-28.5-16.5-28.5-32.8c0-16.3,8.8-32.8,28.5-32.8
					S214.6,261.4,214.6,277.8z M203.3,280.4c0-3.6-0.9-21.7-18.6-21.7s-18.6,18.1-18.6,21.7c0,3.6,0.9,21.7,18.6,21.7
					S203.3,284.1,203.3,280.4z"/>
				<path class="st6" d="M311.7,310.5l-20.4-19.4v19.4h-8.4l-3.4-65.6h11.8v25.3l22.5-25.4l11.2,5.9l-32.1,30.3l31,21.9L311.7,310.5
					z"/>
			</g>
			<g>
				<path class="st7" d="M150.7,256.4c4.3,6.7,4.7,15.1,0.9,22c-4.3,7.9-12.9,12.7-24.1,13.7l1.7,18.5l-11.9,1.9l-1.6-67.3
					C127.8,244.3,143.5,245.2,150.7,256.4z M143.7,261c-3.1-4.8-10.5-7.7-17.8-7.9l1.7,30.6c7.9-0.8,13.9-4.1,16.7-9.3
					C146.6,270.1,146.4,265.1,143.7,261z"/>
				<path class="st7" d="M276.1,277.8c0,16.3-8.8,32.8-28.5,32.8c-19.7,0-28.5-16.5-28.5-32.8c0-16.3,8.8-32.8,28.5-32.8
					C267.3,245,276.1,261.4,276.1,277.8z M264.7,280.4c0-3.6-0.9-21.7-18.6-21.7c-17.7,0-18.6,18.1-18.6,21.7
					c0,3.6,0.9,21.7,18.6,21.7C263.8,302.2,264.7,284.1,264.7,280.4z"/>
				<path class="st7" d="M367.6,244.9l-15.9,33.4v32.3l-10.5-2.6l2-29.7l-15.8-33.4h14.9l5.1,21.3l5.6-21.3H367.6z"/>
			</g>
		</g>
		<g>
			<path class="st6" d="M366.3,342.2c-0.7-0.2-1.3,0.1-1.6,0.7c-0.2,0.3-0.3,0.6-0.5,0.9c-0.2,0.3-0.3,0.7-0.5,1l-0.1,0.2
				c-0.4,0.7-0.8,1.4-1.4,1.9c-0.9,0.9-1.7,0.9-2.7,0c-0.2-0.2-0.4-0.4-0.5-0.6c-1.5-2.1-1.9-4.4-2-6.7c0,0,0,0,0,0
				c4.1-1.5,8.3-7.2,8.7-11.9c0.2-1.8-0.1-3.4-0.9-4.7c-0.6-1.1-1.5-1.9-2.6-2.1c-1-0.2-2.1,0-3.2,0.8c-0.6,0.4-1.1,0.9-1.4,1.4
				c-0.7,1-1.3,1.9-1.7,2.7c-0.9,1.8-1.5,3.9-1.8,6.6l-0.2,1.5c-0.1-0.1-0.2-0.1-0.2-0.2c-1.8-1.5-4.2-2-6.5-1.4
				c-2.3,0.5-4.2,2.1-5.2,4.2c-0.5,1.1-0.8,2.2-1,3.5c0,0.2-0.1,0.5-0.2,0.7c-0.1,0.2-0.2,0.4-0.3,0.7c-0.2,0.3-0.3,0.6-0.4,0.9
				c-0.3,0.6-0.6,1.3-0.8,2c-0.4,1-0.8,1.9-1.2,2.9c-0.3,0.7-0.7,1.4-1.2,2c-0.2,0.3-0.5,0.6-0.8,0.6h0c-0.3,0-0.6-0.3-0.8-0.6
				c-0.4-0.5-0.7-1.1-1-1.9c-0.6-1.6-0.9-3.4-1-5.7c0-1,0-2,0-3c0-1.1,0-2.2-0.1-3.2c-0.1-1.4-0.2-2.4-0.5-3.4c-0.3-1.2-1-2-1.9-2.4
				c-0.9-0.4-2.1-0.4-3.2,0.1c-1.1,0.5-2,1.2-2.9,2.3c-1.4,1.6-2.4,3.3-3,5.1c-0.4,1.2-0.8,2.4-1.1,3.6c-0.1,0.2-0.1,0.5-0.2,0.7
				c-0.1-0.5-0.2-1-0.2-1.5c-0.1-0.4-0.1-0.9-0.2-1.3c-0.1-1-0.2-2-0.4-3c-0.2-1.2-0.8-1.9-1.7-1.9c0,0,0,0,0,0
				c-0.5,0-1.4,0.2-1.7,1.9c-0.1,0.7-0.2,1.4-0.3,2.2c-0.1,0.8-0.2,1.6-0.4,2.5c-0.3,1.9-0.6,3.7-1.4,5.4c-0.3,0.8-0.8,1.5-1.3,2.1
				c-0.6,0.7-1.1,0.7-1.8,0.1c-0.5-0.5-1-1.1-1.4-2c-0.6-1.3-1-2.8-1.4-4.7c-0.7-3.3-0.7-6.7-0.7-9.3l0-0.2c0-0.3,0-0.6,0-0.9
				c-0.1-0.8-0.6-1.3-1.3-1.4c-0.7-0.1-1.4,0.3-1.6,1c-0.1,0.3-0.1,0.7-0.2,1l0,0.3c0,0.2,0,0.3,0,0.5c0,0.2,0,0.5-0.1,0.7
				c-0.7,2.1-1.4,4.5-2.3,6.8c-0.6,1.7-1.3,3-2.2,4.2c-0.7,1-1.5,1.7-2.4,2.1c-1.4,0.7-2.7,0.5-3.8-0.7c-0.6-0.6-1-1.4-1.3-2.4
				c-0.6-1.7-0.9-3.7-1-6.2c0-0.9-0.1-1.9-0.1-2.8c0-0.6,0-1.2,0-1.8c0-0.4,0-0.9-0.2-1.4c-0.2-0.5-0.5-0.9-0.9-1.1
				c-0.4-0.2-1-0.2-1.4,0.1c-0.3,0.2-0.6,0.4-0.9,0.6l-0.1,0.1c-0.5,0.4-0.9,0.7-1.4,1.1c-0.6,0.5-1.2,0.9-1.8,1.4
				c-0.1,0.1-0.2,0.2-0.4,0.2L284,332c0-0.2-0.1-0.4-0.1-0.5c-1.4-4.4-4-7.4-7.6-9.1c-3.4-1.6-6.8-1.3-9.7,0.7
				c-2.9,2-4.1,4.9-3.6,8.5c0.4,2.4,1.6,4.3,3.9,5.9c0.2,0.1,0.4,0.2,0.6,0.4l0,0c0,0,0,0.1,0,0.1c-0.3,0.6-0.6,1.2-0.9,1.8
				c-0.7,1.5-1.5,3.1-2.3,4.6c-0.7,1.2-1.5,2.4-2.2,3.3c-0.4,0.5-0.9,0.9-1.5,1.3c-1,0.6-2.2,0.4-3-0.6c-0.2-0.3-0.5-0.8-0.6-1.3
				c-0.5-1.3-0.7-2.7-0.6-4.2c0.1-1.1,0.2-2.2,0.3-3.3c0.1-0.7,0.2-1.4,0.2-2.1l0.1-0.6c0.1-1,0.2-2,0.2-3c-0.1-1.9-1.1-3-3-3.3
				c-1.3-0.2-2.5,0-3.7,0.2l-0.4,0.1c-0.5,0.1-0.9,0.2-1.4,0.3l-0.3,0.1l-0.2-0.5c-0.4-1.3-0.9-2.4-1.5-3.3c-0.7-1-1.5-1.8-2.4-2.3
				c-1.7-0.9-3.6-0.6-5,0.8c-0.9,1-1.4,2.3-1.4,3.7c0.1,1.4,0.7,2.7,1.8,3.6c1.2,1,2.7,1.5,4.4,1.6c0.4,0,0.9,0,1.4,0l0.3,0
				c0,0.2,0,0.4,0,0.6c0.1,2.2-0.2,4.4-0.8,6.9c-0.6,2.8-1.5,5.6-3.3,8.1c-0.1,0.1-0.1,0.2-0.2,0.3c-0.3,0.6-0.1,1.3,0.3,1.8
				c0.3,0.3,0.6,0.4,1,0.4c0.3,0,0.5-0.1,0.8-0.2c0.3-0.2,0.6-0.5,0.9-0.9l0.3-0.6c0.5-0.8,1-1.6,1.3-2.5c2.1-4.9,2.9-9.6,2.6-14.4
				c0,0,0,0,0,0l0.7-0.1c0.8-0.2,1.5-0.3,2.3-0.4c0.6-0.1,1.2-0.1,1.8-0.1c0.5,0,0.5,0,0.5,0.6c0,0.8,0,1.4-0.1,2l0,0.3
				c-0.4,2.6-0.7,5.2-0.6,7.9c0.1,2,0.5,3.7,1.4,5.2c0.9,1.5,2.2,2.5,3.7,2.8c1.5,0.3,3.1-0.2,4.4-1.2c0.9-0.7,1.6-1.6,2.2-2.4
				c1.2-1.6,2.1-3.3,2.9-5c0-0.1,0.1-0.1,0.1-0.2l0,0.1c0.5,1.6,1.2,2.9,2.1,4c1.4,1.7,3.2,2.6,5.3,2.7c2.4,0.1,4.5-0.9,6.3-3.2
				c0.9-1.1,1.6-2.4,2.1-4.2c0.7-2.2,1-4.6,0.8-6.9l0.5-0.3c0.5-0.3,1-0.7,1.5-1c0.5-0.3,0.9-0.7,1.4-1.1l0.1-0.1c0,0.1,0,0.2,0,0.3
				c0,2.8,0.2,4.9,0.6,6.9c0.3,1.7,0.8,3.6,1.9,5.3c1.8,2.8,5.3,4.4,9.1,1.9c1.4-1,2.5-2.2,3.3-3.7c0.5-1,1-2,1.4-3
				c0.1-0.3,0.3-0.6,0.4-1l0.1,0.7c0.4,2.3,1,4.2,1.8,5.9c0.5,1.2,1.2,2.1,2.1,2.9c1.9,1.7,4.5,1.6,6.1-0.3c0.4-0.5,1-1.1,1.3-1.8
				c0.4-0.9,0.8-1.9,1.1-2.8l0.2-0.5c0-0.1,0-0.1,0.1-0.2l0.2,0.9c0.2,1.2,0.5,2.3,0.7,3.5c0.1,0.3,0.2,0.7,0.3,0.9
				c0.3,0.6,0.8,0.9,1.4,0.9c0.7,0,1.2-0.4,1.4-1c0.1-0.3,0.2-0.6,0.2-0.9l0-0.1c0.1-0.7,0.2-1.3,0.3-2c0.2-1.3,0.5-2.7,0.7-4
				c0.6-2.8,1.4-4.9,2.5-6.7c0.6-0.9,1.3-2,2.3-2.8c0.4-0.3,0.8-0.6,1.3-0.7c0.3-0.1,0.5-0.1,0.6,0.3c0.2,0.4,0.2,0.7,0.3,1
				c0.1,1.3,0.1,2.5,0.2,3.6c0,0.5,0,0.9,0,1.4c0,2,0,4,0.3,6c0.3,1.6,0.6,3.3,1.4,4.9c0.5,1,1,1.7,1.7,2.2c1.6,1.3,3.5,1.2,4.9-0.2
				c0.6-0.6,1.2-1.3,1.6-2.2c0.4-0.8,0.8-1.7,1.2-2.5c0.1-0.3,0.3-0.7,0.4-1c0-0.1,0.1-0.2,0.1-0.2c0,0.1,0.1,0.1,0.1,0.2
				c0.1,0.2,0.3,0.4,0.4,0.6c0.4,0.6,0.7,1.2,1.2,1.8c1.7,1.8,4.3,2.3,6.5,1.3c1.1-0.5,2-1.3,2.7-2.2c0.5-0.8,1-1.6,1.5-2.3
				c0.2-0.3,0.3-0.6,0.5-0.8c0.1,0.4,0.2,0.8,0.4,1.2c0.7,1.9,1.7,3.3,2.9,4.3c1.7,1.3,3.6,1.4,5.4,0.3c0.6-0.4,1.1-0.8,1.6-1.4
				c1-1.2,1.7-2.6,2.3-4c0.1-0.3,0.2-0.6,0.2-0.9C367.3,342.8,366.9,342.3,366.3,342.2z M357,335.9c-0.1,0-0.1,0.1-0.2,0.1
				c0.1-3,0.4-5.9,1.5-8.6c0.6-1.3,1.1-2.2,1.9-2.9c0.3-0.3,0.8-0.7,1.2-0.7c0.1,0,0.1,0,0.2,0c0.3,0.1,0.6,0.5,0.9,1.2
				c0.3,1.1,0.3,2.3-0.1,3.5C361.4,331.7,359.6,334.2,357,335.9z M353.1,339.2c-0.3,0.7-0.6,1.4-0.8,2.1c-0.2,0.6-0.4,1.1-0.6,1.7
				c-0.4,1-1,1.9-1.8,2.7c-0.8,0.8-1.7,1.2-2.5,1.1c-0.9-0.1-1.7-0.6-2.3-1.6c-0.6-1-1.1-2.5-1.1-4c0-1.6,0.3-2.8,1-4
				c0.6-1.1,1.8-1.9,3.1-2.1c1.4-0.3,2.7,0.1,3.8,0.9c0.3,0.3,0.6,0.6,1,1C353.3,337.8,353.5,338.4,353.1,339.2z M281.6,337.5
				c0,0.9-0.1,1.7-0.3,2.6l0,0.1c-0.3,1.5-0.7,2.8-1.4,4c-0.5,0.9-1.1,1.5-1.9,2.1c-2.1,1.5-4.6,0.7-5.8-0.9c-1-1.3-1.5-2.9-1.8-4.7
				c-0.1-0.5-0.1-0.9-0.1-1.5c0-0.1,0-0.2,0-0.3C274,339.7,277.6,339.3,281.6,337.5z M281.3,334.2c-3.9,1.9-7.2,2.4-10.6,1.6l0-0.1
				c0.1-0.5,0.2-0.9,0.4-1.3c0-0.1,0.1-0.2,0.1-0.3c0.1-0.2,0.1-0.3,0.2-0.5c0.2-0.8-0.2-1.5-0.9-1.8c-0.7-0.3-1.5,0-1.9,0.7
				c-0.2,0.4-0.3,0.8-0.5,1.1l-0.1,0.3c-0.1,0.2-0.1,0.4-0.2,0.5c0,0,0,0,0,0c-1.9-1.6-2.5-3.6-1.9-5.8c0.6-2.2,2.1-3.5,4.6-4
				c2-0.4,3.9,0.1,5.6,1.3c2.7,1.9,4.5,4.6,5.1,8.1C281.3,334.1,281.3,334.1,281.3,334.2z M245.2,331.7c-1.4,0.1-2.5-0.1-3.4-0.8
				c-0.7-0.5-0.9-1-0.9-1.8c0.1-0.6,0.4-1,0.8-1.2c0.1-0.1,0.3-0.1,0.5-0.1c0.3,0,0.6,0.1,0.8,0.3c0.4,0.3,0.8,0.8,1.3,1.5
				C244.7,330.2,245,330.9,245.2,331.7z"/>
			<path class="st6" d="M227.9,344.5c-0.6-0.3-1.3-0.1-1.7,0.5c-0.2,0.2-0.3,0.5-0.4,0.7l-0.1,0.2c-0.1,0.2-0.2,0.5-0.3,0.7
				c-0.2,0.5-0.4,0.9-0.7,1.3c-0.5,0.8-1.1,1.3-1.8,1.4c-0.7,0.1-1.4-0.3-2.1-1c-0.6-0.6-1-1.4-1.3-2.3c-0.4-1.2-0.6-2.5-0.6-4
				c0-1,0-2.1,0-3.1c0-0.9,0-1.9,0-2.8c0-1.1-0.1-1.9-0.2-2.7c-0.4-1.9-1.5-3.2-3.4-3.6c-0.8-0.2-1.5-0.2-2.2-0.1
				c-1,0.2-2,0.4-3,0.6c-0.4,0.1-0.9,0.2-1.3,0.3c-0.1,0-0.3,0.1-0.4,0.1l-0.1-1c-0.3-2.5-1.1-4.5-2.4-6.2c-0.6-0.8-1.3-1.4-2.1-1.8
				c-2-1-4-0.6-5.5,1c-1.4,1.5-1.9,3.4-1.3,5.5c0.8,3.1,2.9,5.1,6.2,5.9c0.6,0.1,1.2,0.2,1.8,0.2c0.2,0,0.3,0,0.5,0
				c0,0.1,0,0.1,0,0.2c0,0.3,0,0.6,0,0.9c0,0.8-0.1,1.6-0.2,2.4c-0.4,2.9-1,5.2-1.9,7.1c-0.5,1-1.1,1.9-1.7,2.7
				c-0.8,0.9-1.6,1.1-2.8,0.5c-0.9-0.4-1.6-1.1-2.3-2.2c-1-1.6-1.6-3.5-1.8-5.6c-0.1-1.3-0.1-2.6-0.2-3.9c0-0.4,0-0.8,0-1.2
				c0-0.5,0-1-0.4-1.4c-0.2-0.2-0.4-0.5-0.5-0.7c-0.3-0.4-0.6-0.8-0.9-1.1c-1.8-2.1-5.7-3.4-8.8-2c-2.4,1.1-4.2,2.9-5.3,5.4
				c-0.6,1.4-1,2.9-1.2,4.6c0,0.2,0,0.5,0,0.7c0,0.4,0,0.9-0.2,1.2c-0.1,0.3-0.4,0.7-0.7,1c-0.2,0.2-0.3,0.3-0.5,0.5
				c-0.3,0.4-0.6,0.7-0.9,1.1c-0.6,0.8-1.2,1.6-1.9,2.3c-0.7,0.8-1.4,1.4-2.1,1.8c-2.2,1.4-4.5,1-6.1-1c-0.4-0.5-0.8-1.2-1.1-1.8
				c-0.1-0.2-0.3-0.5-0.4-0.7c0-0.1-0.1-0.2-0.1-0.3l1-0.7c1.2-0.9,2.4-2,3.4-3.3c0.7-0.9,1.4-2,2-3.2c1-2.2,0.9-4.4-0.3-6.5
				c-0.8-1.3-1.9-2.1-3.2-2.3c-1.3-0.2-2.6,0.3-3.7,1.4c-0.8,0.8-1.4,1.8-1.9,3.1c-1,2.6-1.4,5.4-1,8.5c0,0.4,0.1,0.9,0.2,1.3
				l0.1,0.3l-3.6,2.5c0,0,0,0,0,0c-0.7-3.3-1.7-6.7-3-9.9c-0.2-0.6-0.5-1.2-0.9-1.8c-0.4-0.7-1-1-1.7-1c-0.7,0-1.2,0.5-1.6,1.2
				c-0.2,0.3-0.3,0.7-0.3,1c-0.1,0.4-0.2,0.7-0.2,1.1l-0.1,0.7c-0.4,1.6-0.8,3.4-1.5,5.1c-0.7,1.7-1.7,2.9-2.9,3.8
				c-1.9,1.4-4.1,1.3-5.9-0.2c-1-0.8-1.8-1.9-2.5-3.3c-0.9-1.9-1.4-4.1-1.5-6.6c-0.1-1.4,0-2.5,0.2-3.6c0.2-0.9-0.3-1.7-1.1-1.9
				c-0.8-0.2-1.5,0.3-1.8,1.2c-0.1,0.4-0.2,0.7-0.2,1c-0.4,2.9-0.1,5.8,0.8,8.8c0.9,3,2.3,5.2,4.2,6.9c2.9,2.4,6.6,2.6,9.6,0.4
				c1.3-0.9,2.4-2.2,3.3-3.8c0.8-1.4,1.4-3,1.9-5.1l0.1-0.4c1.1,2.8,1.9,5.6,2.4,8.7l-0.6,0.5c-1.8,1.4-3.2,2.8-4.4,4.3
				c-1.5,1.9-2.5,3.7-2.9,5.7c-0.6,2.5-0.1,4.8,1.4,6.9c0.8,1.1,2.4,2.1,4.1,2.1c0.5,0,1-0.1,1.5-0.3c1.4-0.6,2.4-1.4,3-2.4
				c0.5-0.8,0.8-1.5,1-2.2c0.7-2.3,1-4.8,0.8-7.8c-0.1-1.3-0.2-2.5-0.3-3.8c0-0.5-0.1-1-0.1-1.5c1.4-1.1,2.7-2,3.9-2.8l0.2,0.4
				c0,0.1,0.1,0.2,0.1,0.3c1.1,2.2,2.4,3.6,4.1,4.5c1.4,0.7,2.8,1,4.3,0.8c2.1-0.3,3.8-1.3,5.2-2.8c0.8-0.8,1.5-1.7,2.1-2.5
				c0.3-0.4,0.6-0.7,0.9-1.1l0.2-0.2c0.1,0.2,0.1,0.3,0.2,0.5c0.6,1.2,1.3,2.1,2.2,2.7c1.4,0.9,3,1,4.6,0.3c1.6-0.7,2.9-1.9,3.9-3.5
				c0.7-1.1,1.4-2.3,2-3.5c0.2-0.4,0.5-0.9,0.7-1.3c0,0,0,0,0,0c0.1,0.8,0.3,1.5,0.5,2.2c0.5,2,1.3,3.8,2.4,5.3
				c0.9,1.2,2.1,2.1,3.4,2.7c2,0.8,3.9,0.4,5.4-1.1c1.2-1.2,2.1-2.7,3-4.8c1.2-3.1,1.9-6.6,2-10.6c0-0.2,0-0.5,0-0.7v-0.1l1.1-0.2
				c1.3-0.3,2.6-0.5,3.9-0.8c0.3-0.1,0.7,0,1.1,0c0.7,0.1,1.1,0.4,1.2,1.1c0.1,0.6,0.2,1.1,0.2,1.6c0,0.9,0,1.8,0,2.7
				c0,1.1,0,2.2,0,3.4c0,1.9,0.3,3.6,0.7,5.1c0.5,1.9,1.4,3.3,2.6,4.4c1.3,1.1,2.8,1.7,4.3,1.5c1.4-0.2,2.8-1,3.7-2.4
				c0.5-0.7,0.9-1.6,1.2-2.4c0.1-0.3,0.3-0.6,0.4-0.9c0.1-0.2,0.1-0.5,0.1-0.7C228.8,345.3,228.4,344.7,227.9,344.5z M205.1,330.9
				c-2.4,0-3.9-0.8-5-2.4c-0.6-0.9-0.7-1.8-0.5-2.7c0.2-0.8,0.7-1.5,1.3-1.7c0.1,0,0.3-0.1,0.4-0.1c0.5,0,0.9,0.2,1.4,0.7
				c0.2,0.2,0.5,0.5,0.7,0.8c0.3,0.5,0.5,0.9,0.7,1.3C204.7,328,205,329.3,205.1,330.9z M190.8,334.5c0.1,0.1,0.2,0.2,0.2,0.3
				l-0.4,0.9c-1.2,2.7-2.4,5.2-3.9,7.6c-0.5,0.8-1.1,1.7-2,2.4c-0.8,0.6-1.6,0.9-2.3,0.7c-0.7-0.2-1.2-0.8-1.7-1.8
				c-0.3-0.8-0.5-1.6-0.5-2.5c-0.1-2.1,0.3-3.9,1-5.6c0.8-1.9,2.1-3.2,3.9-3.9c0.6-0.2,1.1-0.3,1.7-0.3c1.1,0,2.2,0.4,3.2,1.3
				C190.3,333.8,190.5,334.1,190.8,334.5z M166.9,335.8c-0.3,0.8-0.8,1.6-1.5,2.6c-0.9,1.2-2,2.1-3,2.9c-0.2-1.8-0.2-4.2,0.7-6.5
				c0.2-0.6,0.6-1.2,0.9-1.8l0.3-0.4c0.1-0.2,0.3-0.3,0.5-0.5c0.3-0.3,0.6-0.4,0.9-0.4c0,0,0.1,0,0.1,0c0.3,0,0.6,0.2,0.8,0.6
				C167.3,333.4,167.4,334.6,166.9,335.8z M153.7,360.6c-0.1,0.4-0.3,1-0.5,1.5c-0.3,0.5-0.5,1-0.9,1.3c-0.5,0.5-1,0.7-1.5,0.7
				c-0.6,0-1.1-0.3-1.5-0.9c-0.9-1.1-1.2-2.4-1-3.8c0.1-0.8,0.4-1.6,0.8-2.4c0.8-1.8,2.9-4.3,4.9-5.7c0,0.2,0,0.3,0.1,0.5
				c0.1,0.8,0.2,1.6,0.2,2.4C154.3,356.8,154.1,358.8,153.7,360.6z"/>
			<path class="st6" d="M121.1,346.9c-0.6-0.4-1.4-0.2-1.9,0.4c-0.1,0.1-0.2,0.3-0.3,0.5c0,0.1-0.1,0.2-0.1,0.2
				c-0.1,0.2-0.2,0.3-0.3,0.5c-0.2,0.4-0.5,0.7-0.7,1c-0.7,0.8-1.5,1.2-2.6,1.2c-1.7-0.1-3.1-0.9-4.4-2.4c2.3-3.3,3.4-6.8,4.2-9.8
				c0.8-2.9,1.1-5.5,0.9-8.1c-0.2-1.9-0.7-3.4-1.6-4.8c-1-1.5-2.4-2.2-4-2c-0.9,0.1-1.8,0.5-2.7,1.2c-0.9,0.8-1.7,1.8-2.3,3.1
				c-0.8,1.7-1.2,3.5-1.4,5.4c-0.4,5.2,0.6,10.1,2.9,14.5c0,0.1,0.1,0.1,0.1,0.2c-1.6,1.6-3.4,2.5-5.3,2.4c-1.9,0-3.6-0.9-5.1-2.4
				c0.1-0.3,0.2-0.6,0.4-0.9c0.3-0.8,0.7-1.6,1-2.4c0.8-2.3,1.3-4.9,1.6-7.7c0.2-2.8,0.1-5.1-0.5-7.2c-0.5-1.7-1.1-3-2.1-3.9
				c-1.5-1.5-3.3-1.6-5-0.4c-1,0.7-1.7,1.7-2.4,3.1c-0.7,1.6-1.1,3.3-1.3,5.1c-0.4,5.2,1,9.9,4,14.1c0.1,0.1,0.2,0.2,0.3,0.4
				c-0.7,0.8-1.6,1.4-2.6,1.8c-1.3,0.5-2.5,0.4-3.7-0.2c-1.5-0.8-2.6-2.2-3.2-4.1c-0.8-2.4-1-5-0.8-8.1c0-0.4,0.1-0.8,0.1-1.2
				c0.1-0.5,0.1-0.9,0.1-1.4c0.1-0.9-0.4-1.5-1.2-1.7c-0.8-0.1-1.4,0.3-1.7,1.2c-0.1,0.2-0.1,0.4-0.1,0.6c0,0.1,0,0.1,0,0.2
				c0,0-0.1-0.1-0.1-0.1c-0.4-0.5-0.8-1-1.2-1.4c-1.9-2-4.2-2.8-6.8-2.4c-2.1,0.4-3.9,1.6-5,3.7c-1.7,3-2.1,6.2-1.1,9.5
				c0.6,2,1.8,3.6,3.4,4.7c2.2,1.5,4.8,1.4,6.9-0.2c0.8-0.6,1.4-1.2,1.8-1.9c0.6-0.9,1.1-1.8,1.5-2.7c0.1-0.3,0.3-0.5,0.4-0.8l0,0.1
				c0.4,2.8,1.3,4.9,2.6,6.5c2.1,2.6,4.7,3.6,7.6,3.1c1.7-0.3,3.2-1.1,4.7-2.5l0.4-0.4c2.3,2,4.6,3,7.1,3c2.4,0,4.6-0.9,7.1-3
				c0.1,0.2,0.2,0.3,0.4,0.4c1,1.1,2.2,1.8,3.4,2.3c1,0.4,2,0.6,2.9,0.6c0.9,0,1.8-0.2,2.6-0.6c1.9-0.9,3-2.7,3.8-4.4
				C122,348.1,121.8,347.3,121.1,346.9z M111.2,339.9c-0.8,2.3-1.5,3.9-2.4,5.4c-0.6-1.3-1.1-2.6-1.4-4.2c-0.8-3.5-0.9-6.6-0.3-9.6
				c0.2-0.9,0.5-2.1,1.1-3c0.4-0.7,0.9-1.2,1.4-1.5c0.3-0.2,0.6-0.3,0.9-0.3c0.1,0,0.1,0,0.2,0c0.3,0.1,0.7,0.3,1,0.8
				c0.6,0.9,0.9,2.1,1,3.5C112.9,333.6,112.4,336.5,111.2,339.9z M93.5,328c0.2-0.2,0.3-0.2,0.5-0.2c0.2,0,0.3,0.1,0.5,0.3
				c0.3,0.4,0.6,0.8,0.9,1.4c0.4,0.9,0.7,1.9,0.8,3.3c0.3,4.2-0.3,8.4-1.9,12.4c0,0.1-0.1,0.2-0.1,0.3c-2.9-4.3-3.7-8.9-2.7-13.8
				c0.2-0.9,0.6-1.8,1-2.5C92.6,328.8,93,328.4,93.5,328z M77.6,339.1c-0.3,0.6-0.5,1.1-0.7,1.7c-0.4,1-0.9,2-1.4,3
				c-0.4,0.7-0.8,1.4-1.5,2.1c-1.3,1.4-2.9,1.5-4.4,0.3c-1-0.8-1.6-2-2-3.5c-0.1-0.4-0.1-0.9-0.2-1.2c0-0.1,0-0.2,0-0.3
				c0-1.8,0.4-3.1,1-4.4c0.7-1.4,2-2.3,3.4-2.5c1.4-0.2,2.8,0.4,3.8,1.5c0.5,0.6,0.9,1.2,1.4,1.9c0.2,0.3,0.4,0.6,0.6,0.8
				C77.7,338.7,77.7,338.9,77.6,339.1z"/>
		</g>
	</g>
</g>
</svg>
